{
	"asset":
	{
		"version": "2.0",
		"generator": "Unreal Engine 5.7.0"
	},
	"scene": 0,
	"accessors": [
		{
			"bufferView": 0,
			"count": 36,
			"type": "SCALAR",
			"componentType": 5121
		},
		{
			"bufferView": 1,
			"count": 24,
			"type": "VEC3",
			"componentType": 5126,
			"min": [
				-1.5,
				-4.47149944,
				-1
			],
			"max": [
				1.5,
				4.47149944,
				1
			]
		},
		{
			"bufferView": 2,
			"count": 24,
			"type": "VEC3",
			"componentType": 5126
		},
		{
			"bufferView": 3,
			"count": 24,
			"type": "VEC4",
			"componentType": 5126
		},
		{
			"bufferView": 4,
			"count": 24,
			"type": "VEC2",
			"componentType": 5126
		},
		{
			"bufferView": 5,
			"count": 24,
			"type": "VEC2",
			"componentType": 5126
		}
	],
	"buffers": [
		{
			"uri": "test1_scale_0_01.bin",
			"byteLength": 1380
		}
	],
	"bufferViews": [
		{
			"buffer": 0,
			"byteLength": 36,
			"target": 34963
		},
		{
			"buffer": 0,
			"byteLength": 288,
			"byteOffset": 36,
			"target": 34962
		},
		{
			"buffer": 0,
			"byteLength": 288,
			"byteOffset": 324,
			"target": 34962
		},
		{
			"buffer": 0,
			"byteLength": 384,
			"byteOffset": 612,
			"target": 34962
		},
		{
			"buffer": 0,
			"byteLength": 192,
			"byteOffset": 996,
			"target": 34962
		},
		{
			"buffer": 0,
			"byteLength": 192,
			"byteOffset": 1188,
			"target": 34962
		}
	],
	"materials": [
		{
			"name": "MI_GLTF_Concrete__C35_45",
			"pbrMetallicRoughness":
			{
				"baseColorFactor": [
					0.470587999,
					0.470587999,
					0.470587999,
					1
				],
				"metallicFactor": 0
			},
			"doubleSided": true,
			"extensions":
			{
				"KHR_materials_specular":
				{
					"specularFactor": 0
				}
			}
		}
	],
	"meshes": [
		{
			"name": "Pier_P14-I_0",
			"primitives": [
				{
					"attributes":
					{
						"POSITION": 1,
						"NORMAL": 2,
						"TANGENT": 3,
						"TEXCOORD_0": 4,
						"TEXCOORD_1": 5
					},
					"indices": 0,
					"material": 0
				}
			]
		}
	],
	"nodes": [
		{
			"name": "Brush0"
		},
		{
			"name": "1_2",
			"children": [
				3
			]
		},
		{
			"name": "DefaultPhysicsVolume0"
		},
		{
			"name": "ST_KAPB_MUSI-WSKT-STR-3D-MR_50+102_50+482-R_00_nwd",
			"children": [
				4,
				5,
				6,
				7
			]
		},
		{
			"name": "Pier_P14-I_0",
			"translation": [
				-0.3355048,
				4.47149944,
				2.97750878
			],
			"rotation": [
				-0,
				-0.50964433,
				-0,
				0.860385299
			],
			"mesh": 0
		},
		{
			"name": "Pier_P14-I_0_2",
			"translation": [
				2.69007897,
				4.47149944,
				1.31969619
			],
			"rotation": [
				-0,
				-0.50964433,
				-0,
				0.860385299
			],
			"mesh": 0
		},
		{
			"name": "Pier_P14-I_0_3",
			"translation": [
				0.335504472,
				4.47149944,
				-2.97750878
			],
			"rotation": [
				-0,
				-0.50964433,
				-0,
				0.860385299
			],
			"mesh": 0
		},
		{
			"name": "Pier_P14-I_0_4",
			"translation": [
				-2.69007921,
				4.47149944,
				-1.31969845
			],
			"rotation": [
				-0,
				-0.50964433,
				-0,
				0.860385299
			],
			"mesh": 0
		},
		{
			"name": "AbstractNavData-Default"
		}
	],
	"scenes": [
		{
			"name": "test1",
			"nodes": [
				0,
				1,
				2,
				8
			]
		}
	],
	"extensionsUsed": [
		"KHR_materials_specular"
	]
}